<?xml version="1.0" encoding="iso-8859-1"?>
<svg width="60" height="52" viewBox="0 0 60 52" fill="none" xmlns="http://www.w3.org/2000/svg">
<path d="M47.4112 52C52.4212 52 56.25 47.71 56.25 42.7143V14.8571H3.75V42.7143C3.75 47.71 7.57875 52 12.5888 52H47.4112ZM20.625 22.2857H39.375C39.8723 22.2857 40.3492 22.4814 40.7008 22.8297C41.0525 23.1779 41.25 23.6503 41.25 24.1429C41.25 24.6354 41.0525 25.1078 40.7008 25.4561C40.3492 25.8043 39.8723 26 39.375 26H20.625C20.1277 26 19.6508 25.8043 19.2992 25.4561C18.9475 25.1078 18.75 24.6354 18.75 24.1429C18.75 23.6503 18.9475 23.1779 19.2992 22.8297C19.6508 22.4814 20.1277 22.2857 20.625 22.2857ZM3 0C2.20435 0 1.44129 0.31306 0.87868 0.870311C0.31607 1.42756 0 2.18336 0 2.97143L0 7.42857C0 8.21664 0.31607 8.97244 0.87868 9.52969C1.44129 10.0869 2.20435 10.4 3 10.4H57C57.7957 10.4 58.5587 10.0869 59.1213 9.52969C59.6839 8.97244 60 8.21664 60 7.42857V2.97143C60 2.18336 59.6839 1.42756 59.1213 0.870311C58.5587 0.31306 57.7957 0 57 0H3Z" fill="#7B8B98"/>
</svg>
